<?xml version="1.0" encoding="UTF-8"?>
<svg id="Layer_1" xmlns="http://www.w3.org/2000/svg" version="1.1" viewBox="0 0 100 100">
  <!-- Generator: Adobe Illustrator 29.5.1, SVG Export Plug-In . SVG Version: 2.1.0 Build 141)  -->
  <path d="M50,2L5,26v48l45,24,45-24V26L50,2ZM90,71.5l-40,21.5-40-21.5V28.5L50,7l40,21.5v43Z" fill="#67e8f9"/>
  <path d="M10,28.5v43l40,21.5,40-21.5V28.5L50,7,10,28.5ZM83,68l-33,19-33-19v-36L50,13l33,19v36Z" fill="#0c1218"/>
  <polygon points="62 45 50 50 62 55 62 68 83 68 83 32 62 32 62 45" fill="#22d3ee"/>
  <polygon points="38 55 50 50 38 45 38 32 17 32 17 68 38 68 38 55" fill="#22d3ee"/>
  <polygon points="17 32 38 32 38 45 50 50 62 45 62 32 83 32 50 13 17 32" fill="#0d4a55"/>
  <polygon points="62 55 50 50 38 55 38 68 17 68 50 87 83 68 62 68 62 55" fill="#0d4a55"/>
</svg>